<mxfile host="app.diagrams.net" modified="2022-10-10T16:24:07.571Z" agent="5.0 (Windows)" etag="JyNsLWLMMG6_1S98ea-g" version="20.4.0" type="github">
  <diagram id="q4HkFLHKhj8HuZAKQ_11" name="Page-1">
    <mxGraphModel dx="3157" dy="2440" grid="1" gridSize="10" guides="1" tooltips="1" connect="1" arrows="1" fold="1" page="1" pageScale="1" pageWidth="850" pageHeight="1100" math="0" shadow="0">
      <root>
        <mxCell id="0" />
        <mxCell id="1" parent="0" />
        <mxCell id="ZNh89DqxGTs6rzTFxU9x-90" style="edgeStyle=orthogonalEdgeStyle;rounded=0;orthogonalLoop=1;jettySize=auto;html=1;exitX=1;exitY=0.5;exitDx=0;exitDy=0;" edge="1" parent="1" source="ZNh89DqxGTs6rzTFxU9x-87" target="ZNh89DqxGTs6rzTFxU9x-88">
          <mxGeometry relative="1" as="geometry" />
        </mxCell>
        <mxCell id="ZNh89DqxGTs6rzTFxU9x-87" value="" style="rounded=1;whiteSpace=wrap;html=1;absoluteArcSize=1;arcSize=14;strokeWidth=2;" vertex="1" parent="1">
          <mxGeometry x="-140" y="1190" width="240" height="270" as="geometry" />
        </mxCell>
        <mxCell id="ZNh89DqxGTs6rzTFxU9x-66" value="" style="rounded=1;whiteSpace=wrap;html=1;absoluteArcSize=1;arcSize=14;strokeWidth=2;fillColor=#dae8fc;strokeColor=#6c8ebf;" vertex="1" parent="1">
          <mxGeometry x="850" y="-540" width="1220" height="760" as="geometry" />
        </mxCell>
        <mxCell id="ZNh89DqxGTs6rzTFxU9x-9" style="edgeStyle=orthogonalEdgeStyle;rounded=0;orthogonalLoop=1;jettySize=auto;html=1;exitX=1;exitY=0.5;exitDx=0;exitDy=0;entryX=0;entryY=0.5;entryDx=0;entryDy=0;" edge="1" parent="1" source="ZNh89DqxGTs6rzTFxU9x-2" target="ZNh89DqxGTs6rzTFxU9x-7">
          <mxGeometry relative="1" as="geometry" />
        </mxCell>
        <mxCell id="ZNh89DqxGTs6rzTFxU9x-13" style="edgeStyle=orthogonalEdgeStyle;rounded=0;orthogonalLoop=1;jettySize=auto;html=1;exitX=1;exitY=0.5;exitDx=0;exitDy=0;entryX=0;entryY=0.5;entryDx=0;entryDy=0;" edge="1" parent="1" source="ZNh89DqxGTs6rzTFxU9x-2" target="ZNh89DqxGTs6rzTFxU9x-8">
          <mxGeometry relative="1" as="geometry" />
        </mxCell>
        <mxCell id="ZNh89DqxGTs6rzTFxU9x-2" value="Customer" style="rounded=0;whiteSpace=wrap;html=1;" vertex="1" parent="1">
          <mxGeometry x="-170" y="50" width="160" height="70" as="geometry" />
        </mxCell>
        <mxCell id="ZNh89DqxGTs6rzTFxU9x-82" style="edgeStyle=orthogonalEdgeStyle;rounded=0;orthogonalLoop=1;jettySize=auto;html=1;exitX=1;exitY=0.5;exitDx=0;exitDy=0;entryX=0;entryY=0.5;entryDx=0;entryDy=0;" edge="1" parent="1" source="ZNh89DqxGTs6rzTFxU9x-3" target="ZNh89DqxGTs6rzTFxU9x-73">
          <mxGeometry relative="1" as="geometry" />
        </mxCell>
        <mxCell id="ZNh89DqxGTs6rzTFxU9x-83" style="edgeStyle=orthogonalEdgeStyle;rounded=0;orthogonalLoop=1;jettySize=auto;html=1;exitX=1;exitY=0.5;exitDx=0;exitDy=0;entryX=-0.005;entryY=0.588;entryDx=0;entryDy=0;entryPerimeter=0;" edge="1" parent="1" source="ZNh89DqxGTs6rzTFxU9x-3" target="ZNh89DqxGTs6rzTFxU9x-74">
          <mxGeometry relative="1" as="geometry" />
        </mxCell>
        <mxCell id="ZNh89DqxGTs6rzTFxU9x-86" style="edgeStyle=orthogonalEdgeStyle;rounded=0;orthogonalLoop=1;jettySize=auto;html=1;exitX=0;exitY=0.5;exitDx=0;exitDy=0;entryX=1;entryY=0.5;entryDx=0;entryDy=0;" edge="1" parent="1" source="ZNh89DqxGTs6rzTFxU9x-3" target="ZNh89DqxGTs6rzTFxU9x-85">
          <mxGeometry relative="1" as="geometry" />
        </mxCell>
        <mxCell id="ZNh89DqxGTs6rzTFxU9x-3" value="Cashier" style="rounded=0;whiteSpace=wrap;html=1;" vertex="1" parent="1">
          <mxGeometry x="-400" y="580" width="160" height="70" as="geometry" />
        </mxCell>
        <mxCell id="ZNh89DqxGTs6rzTFxU9x-4" value="Owner store" style="rounded=0;whiteSpace=wrap;html=1;" vertex="1" parent="1">
          <mxGeometry x="-106.63" y="1340" width="160" height="70" as="geometry" />
        </mxCell>
        <mxCell id="ZNh89DqxGTs6rzTFxU9x-5" value="Manager store" style="rounded=0;whiteSpace=wrap;html=1;" vertex="1" parent="1">
          <mxGeometry x="-100" y="1240" width="160" height="70" as="geometry" />
        </mxCell>
        <mxCell id="ZNh89DqxGTs6rzTFxU9x-6" value="Warehouse&lt;br&gt;(pending)" style="rounded=0;whiteSpace=wrap;html=1;" vertex="1" parent="1">
          <mxGeometry x="-700" y="870" width="160" height="70" as="geometry" />
        </mxCell>
        <mxCell id="ZNh89DqxGTs6rzTFxU9x-16" style="edgeStyle=orthogonalEdgeStyle;rounded=0;orthogonalLoop=1;jettySize=auto;html=1;exitX=1;exitY=0.5;exitDx=0;exitDy=0;" edge="1" parent="1" source="ZNh89DqxGTs6rzTFxU9x-7" target="ZNh89DqxGTs6rzTFxU9x-14">
          <mxGeometry relative="1" as="geometry" />
        </mxCell>
        <mxCell id="ZNh89DqxGTs6rzTFxU9x-53" value="Active geolocation" style="edgeLabel;html=1;align=center;verticalAlign=middle;resizable=0;points=[];" vertex="1" connectable="0" parent="ZNh89DqxGTs6rzTFxU9x-16">
          <mxGeometry x="-0.2158" relative="1" as="geometry">
            <mxPoint as="offset" />
          </mxGeometry>
        </mxCell>
        <mxCell id="ZNh89DqxGTs6rzTFxU9x-7" value="Guest" style="rounded=0;whiteSpace=wrap;html=1;" vertex="1" parent="1">
          <mxGeometry x="310" y="-140" width="160" height="70" as="geometry" />
        </mxCell>
        <mxCell id="ZNh89DqxGTs6rzTFxU9x-70" style="edgeStyle=orthogonalEdgeStyle;rounded=0;orthogonalLoop=1;jettySize=auto;html=1;exitX=1;exitY=0.5;exitDx=0;exitDy=0;entryX=0;entryY=0.823;entryDx=0;entryDy=0;entryPerimeter=0;" edge="1" parent="1" source="ZNh89DqxGTs6rzTFxU9x-8" target="ZNh89DqxGTs6rzTFxU9x-66">
          <mxGeometry relative="1" as="geometry" />
        </mxCell>
        <mxCell id="ZNh89DqxGTs6rzTFxU9x-71" value="Have Benefit (ex. discount, in app balance)" style="edgeLabel;html=1;align=center;verticalAlign=middle;resizable=0;points=[];" vertex="1" connectable="0" parent="ZNh89DqxGTs6rzTFxU9x-70">
          <mxGeometry x="-0.1826" relative="1" as="geometry">
            <mxPoint as="offset" />
          </mxGeometry>
        </mxCell>
        <mxCell id="ZNh89DqxGTs6rzTFxU9x-8" value="Registered" style="rounded=0;whiteSpace=wrap;html=1;" vertex="1" parent="1">
          <mxGeometry x="300" y="50" width="160" height="70" as="geometry" />
        </mxCell>
        <mxCell id="ZNh89DqxGTs6rzTFxU9x-41" style="edgeStyle=orthogonalEdgeStyle;rounded=0;orthogonalLoop=1;jettySize=auto;html=1;exitX=1;exitY=0.5;exitDx=0;exitDy=0;entryX=0;entryY=0.5;entryDx=0;entryDy=0;entryPerimeter=0;" edge="1" parent="1" source="ZNh89DqxGTs6rzTFxU9x-11" target="ZNh89DqxGTs6rzTFxU9x-37">
          <mxGeometry relative="1" as="geometry" />
        </mxCell>
        <mxCell id="ZNh89DqxGTs6rzTFxU9x-11" value="Cash" style="rounded=0;whiteSpace=wrap;html=1;" vertex="1" parent="1">
          <mxGeometry x="940" y="-70" width="160" height="70" as="geometry" />
        </mxCell>
        <mxCell id="ZNh89DqxGTs6rzTFxU9x-51" style="edgeStyle=orthogonalEdgeStyle;rounded=0;orthogonalLoop=1;jettySize=auto;html=1;exitX=1;exitY=0.5;exitDx=0;exitDy=0;" edge="1" parent="1" source="ZNh89DqxGTs6rzTFxU9x-12" target="ZNh89DqxGTs6rzTFxU9x-47">
          <mxGeometry relative="1" as="geometry" />
        </mxCell>
        <mxCell id="ZNh89DqxGTs6rzTFxU9x-12" value="&lt;div&gt;E-Wallet&lt;br&gt;(Payment Gateway)&lt;/div&gt;&lt;div&gt;ex. Midtrans, Xendit&lt;br&gt;&lt;/div&gt;" style="rounded=0;whiteSpace=wrap;html=1;" vertex="1" parent="1">
          <mxGeometry x="940" y="-260" width="160" height="70" as="geometry" />
        </mxCell>
        <mxCell id="ZNh89DqxGTs6rzTFxU9x-67" style="edgeStyle=orthogonalEdgeStyle;rounded=0;orthogonalLoop=1;jettySize=auto;html=1;exitX=1;exitY=0.5;exitDx=0;exitDy=0;entryX=0.001;entryY=0.573;entryDx=0;entryDy=0;entryPerimeter=0;" edge="1" parent="1" source="ZNh89DqxGTs6rzTFxU9x-14" target="ZNh89DqxGTs6rzTFxU9x-66">
          <mxGeometry relative="1" as="geometry" />
        </mxCell>
        <mxCell id="ZNh89DqxGTs6rzTFxU9x-14" value="Form:&lt;br&gt;*Name,&lt;br&gt;&lt;div&gt;*Phone Number,&lt;/div&gt;&lt;div&gt;Email&lt;br&gt;&lt;/div&gt;" style="rounded=0;whiteSpace=wrap;html=1;" vertex="1" parent="1">
          <mxGeometry x="620" y="-140" width="160" height="70" as="geometry" />
        </mxCell>
        <mxCell id="ZNh89DqxGTs6rzTFxU9x-63" style="edgeStyle=orthogonalEdgeStyle;rounded=0;orthogonalLoop=1;jettySize=auto;html=1;exitX=1;exitY=0.5;exitDx=0;exitDy=0;" edge="1" parent="1" source="ZNh89DqxGTs6rzTFxU9x-19" target="ZNh89DqxGTs6rzTFxU9x-45">
          <mxGeometry relative="1" as="geometry" />
        </mxCell>
        <mxCell id="ZNh89DqxGTs6rzTFxU9x-19" value="Order completed " style="rounded=0;whiteSpace=wrap;html=1;" vertex="1" parent="1">
          <mxGeometry x="1660" y="-460" width="160" height="70" as="geometry" />
        </mxCell>
        <mxCell id="ZNh89DqxGTs6rzTFxU9x-20" value="Pay to cashier" style="rounded=0;whiteSpace=wrap;html=1;" vertex="1" parent="1">
          <mxGeometry x="1330" y="-50" width="160" height="70" as="geometry" />
        </mxCell>
        <mxCell id="ZNh89DqxGTs6rzTFxU9x-26" value="Canceled payment" style="rounded=0;whiteSpace=wrap;html=1;" vertex="1" parent="1">
          <mxGeometry x="1320" y="90" width="160" height="70" as="geometry" />
        </mxCell>
        <mxCell id="ZNh89DqxGTs6rzTFxU9x-39" style="edgeStyle=orthogonalEdgeStyle;rounded=0;orthogonalLoop=1;jettySize=auto;html=1;exitX=0.5;exitY=0;exitDx=0;exitDy=0;exitPerimeter=0;entryX=0;entryY=0.5;entryDx=0;entryDy=0;" edge="1" parent="1" source="ZNh89DqxGTs6rzTFxU9x-37" target="ZNh89DqxGTs6rzTFxU9x-20">
          <mxGeometry relative="1" as="geometry" />
        </mxCell>
        <mxCell id="ZNh89DqxGTs6rzTFxU9x-43" value="Yes" style="edgeLabel;html=1;align=center;verticalAlign=middle;resizable=0;points=[];" vertex="1" connectable="0" parent="ZNh89DqxGTs6rzTFxU9x-39">
          <mxGeometry x="-0.0811" y="1" relative="1" as="geometry">
            <mxPoint as="offset" />
          </mxGeometry>
        </mxCell>
        <mxCell id="ZNh89DqxGTs6rzTFxU9x-40" style="edgeStyle=orthogonalEdgeStyle;rounded=0;orthogonalLoop=1;jettySize=auto;html=1;exitX=0.5;exitY=1;exitDx=0;exitDy=0;exitPerimeter=0;" edge="1" parent="1" source="ZNh89DqxGTs6rzTFxU9x-37" target="ZNh89DqxGTs6rzTFxU9x-26">
          <mxGeometry relative="1" as="geometry" />
        </mxCell>
        <mxCell id="ZNh89DqxGTs6rzTFxU9x-44" value="No" style="edgeLabel;html=1;align=center;verticalAlign=middle;resizable=0;points=[];" vertex="1" connectable="0" parent="ZNh89DqxGTs6rzTFxU9x-40">
          <mxGeometry x="-0.0098" y="-2" relative="1" as="geometry">
            <mxPoint as="offset" />
          </mxGeometry>
        </mxCell>
        <mxCell id="ZNh89DqxGTs6rzTFxU9x-37" value="confirmed" style="strokeWidth=2;html=1;shape=mxgraph.flowchart.decision;whiteSpace=wrap;" vertex="1" parent="1">
          <mxGeometry x="1160" y="5" width="100" height="100" as="geometry" />
        </mxCell>
        <mxCell id="ZNh89DqxGTs6rzTFxU9x-45" value="Balance transfered to restaurant" style="rounded=0;whiteSpace=wrap;html=1;" vertex="1" parent="1">
          <mxGeometry x="1870" y="-460" width="160" height="70" as="geometry" />
        </mxCell>
        <mxCell id="ZNh89DqxGTs6rzTFxU9x-49" style="edgeStyle=orthogonalEdgeStyle;rounded=0;orthogonalLoop=1;jettySize=auto;html=1;exitX=0.5;exitY=1;exitDx=0;exitDy=0;exitPerimeter=0;entryX=0.006;entryY=0.589;entryDx=0;entryDy=0;entryPerimeter=0;" edge="1" parent="1" source="ZNh89DqxGTs6rzTFxU9x-47" target="ZNh89DqxGTs6rzTFxU9x-48">
          <mxGeometry relative="1" as="geometry" />
        </mxCell>
        <mxCell id="ZNh89DqxGTs6rzTFxU9x-50" value="No" style="edgeLabel;html=1;align=center;verticalAlign=middle;resizable=0;points=[];" vertex="1" connectable="0" parent="ZNh89DqxGTs6rzTFxU9x-49">
          <mxGeometry x="0.2586" y="-2" relative="1" as="geometry">
            <mxPoint as="offset" />
          </mxGeometry>
        </mxCell>
        <mxCell id="ZNh89DqxGTs6rzTFxU9x-54" style="edgeStyle=orthogonalEdgeStyle;rounded=0;orthogonalLoop=1;jettySize=auto;html=1;exitX=0.5;exitY=0;exitDx=0;exitDy=0;exitPerimeter=0;entryX=0;entryY=0.5;entryDx=0;entryDy=0;" edge="1" parent="1" source="ZNh89DqxGTs6rzTFxU9x-47" target="ZNh89DqxGTs6rzTFxU9x-52">
          <mxGeometry relative="1" as="geometry" />
        </mxCell>
        <mxCell id="ZNh89DqxGTs6rzTFxU9x-55" value="Yes" style="edgeLabel;html=1;align=center;verticalAlign=middle;resizable=0;points=[];" vertex="1" connectable="0" parent="ZNh89DqxGTs6rzTFxU9x-54">
          <mxGeometry x="0.1444" y="-3" relative="1" as="geometry">
            <mxPoint as="offset" />
          </mxGeometry>
        </mxCell>
        <mxCell id="ZNh89DqxGTs6rzTFxU9x-47" value="transfer" style="strokeWidth=2;html=1;shape=mxgraph.flowchart.decision;whiteSpace=wrap;" vertex="1" parent="1">
          <mxGeometry x="1170" y="-275" width="100" height="100" as="geometry" />
        </mxCell>
        <mxCell id="ZNh89DqxGTs6rzTFxU9x-48" value="Automatic canceled" style="rounded=0;whiteSpace=wrap;html=1;" vertex="1" parent="1">
          <mxGeometry x="1310" y="-160" width="160" height="70" as="geometry" />
        </mxCell>
        <mxCell id="ZNh89DqxGTs6rzTFxU9x-57" style="edgeStyle=orthogonalEdgeStyle;rounded=0;orthogonalLoop=1;jettySize=auto;html=1;exitX=1;exitY=0.5;exitDx=0;exitDy=0;entryX=0;entryY=0.5;entryDx=0;entryDy=0;entryPerimeter=0;" edge="1" parent="1" source="ZNh89DqxGTs6rzTFxU9x-52" target="ZNh89DqxGTs6rzTFxU9x-56">
          <mxGeometry relative="1" as="geometry" />
        </mxCell>
        <mxCell id="ZNh89DqxGTs6rzTFxU9x-52" value="Notifies cashier" style="rounded=0;whiteSpace=wrap;html=1;" vertex="1" parent="1">
          <mxGeometry x="1310" y="-370" width="160" height="70" as="geometry" />
        </mxCell>
        <mxCell id="ZNh89DqxGTs6rzTFxU9x-59" style="edgeStyle=orthogonalEdgeStyle;rounded=0;orthogonalLoop=1;jettySize=auto;html=1;exitX=0.5;exitY=1;exitDx=0;exitDy=0;exitPerimeter=0;entryX=0;entryY=0.5;entryDx=0;entryDy=0;" edge="1" parent="1" source="ZNh89DqxGTs6rzTFxU9x-56" target="ZNh89DqxGTs6rzTFxU9x-58">
          <mxGeometry relative="1" as="geometry" />
        </mxCell>
        <mxCell id="ZNh89DqxGTs6rzTFxU9x-62" value="No" style="edgeLabel;html=1;align=center;verticalAlign=middle;resizable=0;points=[];" vertex="1" connectable="0" parent="ZNh89DqxGTs6rzTFxU9x-59">
          <mxGeometry x="0.0476" y="-2" relative="1" as="geometry">
            <mxPoint as="offset" />
          </mxGeometry>
        </mxCell>
        <mxCell id="ZNh89DqxGTs6rzTFxU9x-60" style="edgeStyle=orthogonalEdgeStyle;rounded=0;orthogonalLoop=1;jettySize=auto;html=1;exitX=0.5;exitY=0;exitDx=0;exitDy=0;exitPerimeter=0;entryX=0;entryY=0.5;entryDx=0;entryDy=0;" edge="1" parent="1" source="ZNh89DqxGTs6rzTFxU9x-56" target="ZNh89DqxGTs6rzTFxU9x-19">
          <mxGeometry relative="1" as="geometry" />
        </mxCell>
        <mxCell id="ZNh89DqxGTs6rzTFxU9x-61" value="Yes" style="edgeLabel;html=1;align=center;verticalAlign=middle;resizable=0;points=[];" vertex="1" connectable="0" parent="ZNh89DqxGTs6rzTFxU9x-60">
          <mxGeometry x="0.0909" y="-4" relative="1" as="geometry">
            <mxPoint as="offset" />
          </mxGeometry>
        </mxCell>
        <mxCell id="ZNh89DqxGTs6rzTFxU9x-56" value="Confirmed" style="strokeWidth=2;html=1;shape=mxgraph.flowchart.decision;whiteSpace=wrap;" vertex="1" parent="1">
          <mxGeometry x="1540" y="-385" width="100" height="100" as="geometry" />
        </mxCell>
        <mxCell id="ZNh89DqxGTs6rzTFxU9x-69" style="edgeStyle=orthogonalEdgeStyle;rounded=0;orthogonalLoop=1;jettySize=auto;html=1;exitX=1;exitY=0.5;exitDx=0;exitDy=0;entryX=0;entryY=0.5;entryDx=0;entryDy=0;" edge="1" parent="1" source="ZNh89DqxGTs6rzTFxU9x-58" target="ZNh89DqxGTs6rzTFxU9x-68">
          <mxGeometry relative="1" as="geometry" />
        </mxCell>
        <mxCell id="ZNh89DqxGTs6rzTFxU9x-58" value="Must registered" style="rounded=0;whiteSpace=wrap;html=1;" vertex="1" parent="1">
          <mxGeometry x="1660" y="-300" width="160" height="70" as="geometry" />
        </mxCell>
        <mxCell id="ZNh89DqxGTs6rzTFxU9x-68" value="App refund balance to customer in app balance" style="rounded=0;whiteSpace=wrap;html=1;" vertex="1" parent="1">
          <mxGeometry x="1870" y="-300" width="160" height="70" as="geometry" />
        </mxCell>
        <mxCell id="ZNh89DqxGTs6rzTFxU9x-79" style="edgeStyle=orthogonalEdgeStyle;rounded=0;orthogonalLoop=1;jettySize=auto;html=1;exitX=1;exitY=0.5;exitDx=0;exitDy=0;" edge="1" parent="1" source="ZNh89DqxGTs6rzTFxU9x-73" target="ZNh89DqxGTs6rzTFxU9x-78">
          <mxGeometry relative="1" as="geometry" />
        </mxCell>
        <mxCell id="ZNh89DqxGTs6rzTFxU9x-73" value="Selling item manual" style="rounded=0;whiteSpace=wrap;html=1;" vertex="1" parent="1">
          <mxGeometry x="-110" y="446.75" width="160" height="70" as="geometry" />
        </mxCell>
        <mxCell id="ZNh89DqxGTs6rzTFxU9x-84" style="edgeStyle=orthogonalEdgeStyle;rounded=0;orthogonalLoop=1;jettySize=auto;html=1;exitX=1;exitY=0.5;exitDx=0;exitDy=0;entryX=0;entryY=0.5;entryDx=0;entryDy=0;" edge="1" parent="1" source="ZNh89DqxGTs6rzTFxU9x-74" target="ZNh89DqxGTs6rzTFxU9x-77">
          <mxGeometry relative="1" as="geometry" />
        </mxCell>
        <mxCell id="ZNh89DqxGTs6rzTFxU9x-74" value="Confirm online order" style="rounded=0;whiteSpace=wrap;html=1;" vertex="1" parent="1">
          <mxGeometry x="-110" y="610" width="160" height="70" as="geometry" />
        </mxCell>
        <mxCell id="ZNh89DqxGTs6rzTFxU9x-75" value="Order complete" style="rounded=0;whiteSpace=wrap;html=1;" vertex="1" parent="1">
          <mxGeometry x="330" y="360" width="160" height="70" as="geometry" />
        </mxCell>
        <mxCell id="ZNh89DqxGTs6rzTFxU9x-76" value="Canceled order" style="rounded=0;whiteSpace=wrap;html=1;" vertex="1" parent="1">
          <mxGeometry x="330" y="516.75" width="160" height="70" as="geometry" />
        </mxCell>
        <mxCell id="ZNh89DqxGTs6rzTFxU9x-77" value="Order complete" style="rounded=0;whiteSpace=wrap;html=1;" vertex="1" parent="1">
          <mxGeometry x="170" y="650" width="160" height="70" as="geometry" />
        </mxCell>
        <mxCell id="ZNh89DqxGTs6rzTFxU9x-80" style="edgeStyle=orthogonalEdgeStyle;rounded=0;orthogonalLoop=1;jettySize=auto;html=1;exitX=1;exitY=0.5;exitDx=0;exitDy=0;exitPerimeter=0;entryX=0;entryY=0.5;entryDx=0;entryDy=0;" edge="1" parent="1" source="ZNh89DqxGTs6rzTFxU9x-78" target="ZNh89DqxGTs6rzTFxU9x-75">
          <mxGeometry relative="1" as="geometry" />
        </mxCell>
        <mxCell id="ZNh89DqxGTs6rzTFxU9x-81" style="edgeStyle=orthogonalEdgeStyle;rounded=0;orthogonalLoop=1;jettySize=auto;html=1;exitX=1;exitY=0.5;exitDx=0;exitDy=0;exitPerimeter=0;entryX=0;entryY=0.5;entryDx=0;entryDy=0;" edge="1" parent="1" source="ZNh89DqxGTs6rzTFxU9x-78" target="ZNh89DqxGTs6rzTFxU9x-76">
          <mxGeometry relative="1" as="geometry" />
        </mxCell>
        <mxCell id="ZNh89DqxGTs6rzTFxU9x-78" value="confirmed" style="strokeWidth=2;html=1;shape=mxgraph.flowchart.decision;whiteSpace=wrap;" vertex="1" parent="1">
          <mxGeometry x="130" y="431.75" width="100" height="100" as="geometry" />
        </mxCell>
        <mxCell id="ZNh89DqxGTs6rzTFxU9x-85" value="Manage active menu" style="rounded=0;whiteSpace=wrap;html=1;" vertex="1" parent="1">
          <mxGeometry x="-650" y="580" width="160" height="70" as="geometry" />
        </mxCell>
        <mxCell id="ZNh89DqxGTs6rzTFxU9x-88" value="Sales Traffic" style="rounded=0;whiteSpace=wrap;html=1;" vertex="1" parent="1">
          <mxGeometry x="230" y="1290" width="160" height="70" as="geometry" />
        </mxCell>
      </root>
    </mxGraphModel>
  </diagram>
</mxfile>
